<svg id="グループ_225" data-name="グループ 225" xmlns="http://www.w3.org/2000/svg" width="78.307" height="78.309" viewBox="0 0 78.307 78.309">
  <path id="パス_5109" data-name="パス 5109" d="M1950.672,1902.094v2.086h2.087v4.22h2.147v-6.309h2.152v6.3h2.035v-6.274h-2.066v-2.1h2.121v-4.238h4.286l-.029-.031-.017,2.127.031-.028h-2.06V1900h2.06l-.032-.029v2.147l.032-.029h-2.061v2.149h2.06l-.028-.028q.035,1.089.066,2.176h-2.113v2.01h2.081v-2.04h2.113l-.029-.029v2.121h2.15v6.4h-2.121v2.1h-2.185v-2.07h-2v4.162h4.182v2.172h2.121v2.1h-4.268v-2.063H1961.3v2.061h-2.057v2.092h2.057v2.152c-2.216,0-4.283,0-6.351,0l.034.029v-4.308h1.978v-2.144h-2.067v-2.1h-2.15c0-1.472,0-2.87,0-4.265h2.126v-2.007h-2.092v2.035h-2.129v-2.028h-2.135v2.035h-8.439l.031.028-.017-2.127-.029.031h4.221v-2.13h6.343V1906.4l-2.1-.1.031.035.032-4.233-.031.029h2.149Zm10.634,10.525h2.027v-1.954h-2.027Zm-2.161,4.386h-2.024v1.971h2.024Z" transform="translate(-1925.304 -1893.678)" fill="#373737"/>
  <path id="パス_5110" data-name="パス 5110" d="M1983.263,1936.269v2.11h-2.047v4.213h2.047v4.3l.031-.029h-2.06v2.15h2.06l-.029-.031v2.15l.029-.031H1981.1v2.184h-2.075v2.084l.029-.029h-2.149l.029.029v-2.058h-2.149v2.058l.031-.029-2.153.031v-2.123h-2.116v-2.118h-2.121v-2.178h2.084v-2.091h-1.989v-2.132h2.055V1942.6h2.01v-2.135h-2.04v-2.081h4.182v-4.208h-2.063v-2.152h2.061v-4.208h-2.061V1925.7h-2.121v-2.12h-4.234v-2.15h2.057v-2.089h-2.061v-2.057h4.285v4.092h2.083V1915.1l-.031.034,2.173-.031-.031-.031v4.285h2.12v2.1l.029-.029h-2.061v4.268h2.061l-.029-.029v2.118h2.15v2.179h-2.081v2.09h2.105v4.237h4.213Zm-10.533,14.792h6.244v-6.225h-6.244Zm2.127-8.487h1.984v-2h-1.984Z" transform="translate(-1911.27 -1883.348)" fill="#373737"/>
  <path id="パス_5111" data-name="パス 5111" d="M1941,1922.371h-2.112v-6.337h-2.1v-4.259h-2.135v-2.064h-2.11v1.96h-2.086v-6.189h2.029v1.98h2.095v-1.991h2.127v1.968h2.132v-1.983h2.124c0,1.366,0,2.76,0,4.155h-2.026v2.053h1.992v-2.092l4.311.077-.031-.028v2.17h-2.087v2.095h-2.061v4.144h4.105v-2.064H1943.1v-2.11h10.522v2.178h-2.067v2.024h-2.109v-2.009h-2.024v8.406h2.063v2.19h-4.3v-2.113h-2.008v2.079h2.036l0,2.115.031-.029h-2.148v2.149l.029-.031h-2.073l-.115,2.076h-4.152v-2h-2.09v1.986h-2.136v-1.991h-2.092v-8.49h1.989v-2.135h2.12l.114-2.195-.035.031h2.041v4.21h-2.041v2.135h-2.06v4.2h6.223l.118-2.106-.035.031h2.073v-4.228h4.181v-2.035H1941Z" transform="translate(-1930.44 -1888.491)" fill="#373737"/>
  <path id="パス_5112" data-name="パス 5112" d="M1986.587,1909.123h-14.711v-14.7h14.711Zm-12.622-2.133h10.5v-10.442h-10.5Z" transform="translate(-1908.292 -1894.391)" fill="#373737"/>
  <path id="パス_5113" data-name="パス 5113" d="M1930.471,1935.815h14.665v14.74h-14.665Zm2.081,12.611h10.465v-10.464h-10.465Z" transform="translate(-1930.433 -1872.256)" fill="#373737"/>
  <path id="パス_5114" data-name="パス 5114" d="M1930.446,1909.109v-14.7h14.7v14.7Zm12.6-2.064v-10.5H1932.6v10.5Z" transform="translate(-1930.446 -1894.4)" fill="#373737"/>
  <path id="パス_5115" data-name="パス 5115" d="M1968,1948.5h-2.146l.029.031q-.034-2.148-.068-4.3h2.115v-4.127h-2.083v4.155h-4.159v2.159h2.046v2.109l.029-.031H1959.5l.029.031v-2.149h-4.268l.034.031.037-2.181-.034.031h2.061v-2.055h2.175v-2.181l-.031.029,2.143-.034v2.07h2.032v-2.041h-2.063v-2.1h2.156v-2.17l-.032.031,2.147-.031v2.063h2.094v-2.063l2.147,0v2.169h2.121v2.1h-2.062v2.087h2.063l-.031,2.152.031-.032h-2.081l-.1,2.11h-2.087v2.158Z" transform="translate(-1917.176 -1872.271)" fill="#373737"/>
  <path id="パス_5116" data-name="パス 5116" d="M1941.47,1936.629h4.244V1934.5l-.032.029h2.184v2.046h2v-4.2h-1.978v-2.114h4.182v2.15h4.24l-.027-.029v2.149l.029-.031h-2.148v6.387l.029-.028h-2.061v2.149h2.061l-.031-.029v2.061h-4.195v-6.223h-2.089v2.053H1945.7l.032.031v-2.115h-4.23v-2.19Z" transform="translate(-1924.551 -1875.225)" fill="#373737"/>
  <path id="パス_5117" data-name="パス 5117" d="M1957.507,1937.456h-2.2v4.308l.035-.031h-4.195v-4.277l-.029.031h2.06v-2.149h-2.06l.027.029-.032-4.268h2.124v-2.121h2.144v2.07h2.032v-2.041h-2.063v-2.169h2.124v-2.1l2.147,0v2.121h2.123v2.172h-2.057v2.115h1.978v2.116H1959.6v2.1l.029-.029-2.106-.015v-2h-2.092v1.97h2.118c-.024.734-.046,1.464-.069,2.195Z" transform="translate(-1919.393 -1878.179)" fill="#373737"/>
  <path id="パス_5118" data-name="パス 5118" d="M1983.809,1922.815v2.146l.032-.028-6.388.031v-2.055h-2.09v2.055l-2.149-.031.029.029v-4.268l-.029.029h2.168v-4.239h2.1l-.029-.029v2.064h2.149v-2.064l-.029.031h4.237v4.236l.031-.028h-2.06v2.149h2.06Z" transform="translate(-1907.577 -1882.609)" fill="#373737"/>
  <path id="パス_5119" data-name="パス 5119" d="M1965.025,1905.439h2.1v2.119h2.172l-.029-.031.031,2.149h-2.061v2.091h2.06v2.15h-4.264v-2.071H1963v2.041h2.063v4.267H1962.9v-2.122h-2.119l.072-6.417-.035.031h2.136v-2.13h2.1v-2.109Z" transform="translate(-1914.223 -1888.517)" fill="#373737"/>
  <path id="パス_5120" data-name="パス 5120" d="M1983.072,1938.58h2.064V1949.1h-2.008v-2.044h-6.385v-2.145H1974.6l.028.031v-2.149l-.029.029,4.3-.067c0,.691,0,1.381,0,2.115h4.125v-2.081h-4.155v-4.234l-.029.031h2.149l-.031-.031v2.064h2.15v-2.064Z" transform="translate(-1906.838 -1870.794)" fill="#373737"/>
  <path id="パス_5121" data-name="パス 5121" d="M1940.839,1926.984v-2.1h-2.119v-2.17l-.029.031h2.148V1920.6l-.031.029h4.3v4.17h2.1v-4.2h2.105v6.386h-2.184v2.049h-2.1v-2.078h-4.224Z" transform="translate(-1926.037 -1880.394)" fill="#373737"/>
  <path id="パス_5122" data-name="パス 5122" d="M1970.451,1911.06h2.109v-2.1h2.1v-2.141h2.183l-.029-.031v4.294h-2.018v6.254h2.059v-4.16h2.107l-.031-.029v6.387l.032-.031h-6.388l.031.031v-6.4h-2.121v-2.1Z" transform="translate(-1909.053 -1887.778)" fill="#373737"/>
  <path id="パス_5123" data-name="パス 5123" d="M1945.722,1935.98h-2.1v-4.241h-2.167l.028.031v-2.159h2.052l.106-2.109h6.32v2.178h-4.27v6.329Z" transform="translate(-1924.56 -1876.702)" fill="#373737"/>
  <path id="パス_5124" data-name="パス 5124" d="M1947.809,1902.073h-2.1v2.073h-4.179v-2.026h1.963v-4.248h-1.98v-2.08h4.113v4.19h2.181l-.028-.029v2.149Z" transform="translate(-1924.528 -1893.658)" fill="#373737"/>
  <path id="パス_5125" data-name="パス 5125" d="M1966.5,1902.742v2.149l.029-.029h-2.15v2.15l.031-.031h-2.175v-4.239h-4.213l.031.029v-2.091h2.072v-2.144h2.167l-.031-.034v2.121h2.15v2.147h2.118Z" transform="translate(-1915.699 -1892.209)" fill="#373737"/>
  <path id="パス_5126" data-name="パス 5126" d="M1945.661,1941.315v4.22h2.074v2.061h-6.225v-2.006h1.966v-2.1h-1.951v-2.144h4.167Z" transform="translate(-1924.53 -1869.316)" fill="#373737"/>
  <path id="パス_5127" data-name="パス 5127" d="M1934.657,1931.052h-4.192v-4.182h2.02v-2.084h4.184v2.029h-2.044v4.27Z" transform="translate(-1930.436 -1878.154)" fill="#373737"/>
  <path id="パス_5128" data-name="パス 5128" d="M1962.2,1898.606V1896.5h2.1v-2.1h2.083v2.087h2.178l-.029-.031v2.149l.029-.029h-2.15v2.149l.031-.029-2.149.031v-2.15h-2.121Z" transform="translate(-1913.484 -1894.402)" fill="#373737"/>
  <path id="パス_5129" data-name="パス 5129" d="M1981.594,1926.122v2.093h2.067v2.121h-2.028v2.13l.031-.035h-2.121v-2.07h-2.189l.031.028v-2.17h2.089v-2.1l2.15.029Z" transform="translate(-1905.362 -1877.44)" fill="#373737"/>
  <path id="パス_5130" data-name="パス 5130" d="M1945.683,1937.176v2.11h2.063v4.242h-2.081l.031.031v-2.116h-4.19v-2.092h2.021v-2.146c.8,0,1.495,0,2.187,0Z" transform="translate(-1924.532 -1871.529)" fill="#373737"/>
  <path id="パス_5131" data-name="パス 5131" d="M1975.975,1907.529h4.205v-2.067h2.152v4.184l.031-.028h-2.15v2.149l.029-.032h-2.147l.029.032v-2.17H1976v-2.1Z" transform="translate(-1906.1 -1888.488)" fill="#373737"/>
  <path id="パス_5132" data-name="パス 5132" d="M1976.811,1943.429v2.1h-2.053l-.1,2.1h-2.028v-2.076h-2.179l.029.031-.029-2.15h2.15v-2.118l-.031.029h2.149l-.029-.029v2.149h2.149Z" transform="translate(-1909.053 -1869.318)" fill="#373737"/>
  <path id="パス_5133" data-name="パス 5133" d="M1933.175,1928.9h4.17v6.343h-2.061l.031.031v-4.218h-2.109v-2.188Z" transform="translate(-1928.987 -1875.971)" fill="#373737"/>
  <path id="パス_5134" data-name="パス 5134" d="M1966.338,1896.481v-2.063h4.173l.1,2.015h1.986v2.133h-4.173l.031.032v-2.149h-2.147Z" transform="translate(-1911.268 -1894.393)" fill="#373737"/>
  <path id="パス_5135" data-name="パス 5135" d="M1980.854,1922.007h2.064v6.331h-2.063l.031.029v-2.12h-2.152v-2.17h2.152v-2.1Z" transform="translate(-1904.624 -1879.655)" fill="#373737"/>
  <path id="パス_5136" data-name="パス 5136" d="M1951.885,1943.549v-4.26h-2.148l.031.029v-2.149l-.029.028h4.177v6.322h-2.061Z" transform="translate(-1920.13 -1871.533)" fill="#373737"/>
  <path id="パス_5137" data-name="パス 5137" d="M1970.576,1945.55h-2.083l-.1,2.078h-2.057v-6.319l-.031.032,2.146-.029v2.121h2.123l-.031,2.147Z" transform="translate(-1911.268 -1869.319)" fill="#373737"/>
  <path id="パス_5138" data-name="パス 5138" d="M1951.209,1944.81h-2.081l-.1,2.07h-1.986v-4.155h4.17l-.031-.034v2.149Z" transform="translate(-1921.572 -1868.579)" fill="#373737"/>
  <path id="パス_5139" data-name="パス 5139" d="M1934.688,1915.106h-2.159v-2.046h-2.073v-2.067h4.2c0,1.366,0,2.756,0,4.145Z" transform="translate(-1930.441 -1885.53)" fill="#373737"/>
  <path id="パス_5140" data-name="パス 5140" d="M1937.312,1927.534h4.263l-.029-.032v2.17h-2.118v2.1l.031-.032h-2.118v-4.233Z" transform="translate(-1926.775 -1876.702)" fill="#373737"/>
  <path id="パス_5141" data-name="パス 5141" d="M1942.932,1930.263v2.064h-4.21v-2.066l-.031.032h4.268Z" transform="translate(-1926.037 -1875.226)" fill="#373737"/>
  <path id="パス_5142" data-name="パス 5142" d="M1980.143,1930.268h2.035v4.286h-2.035l.034.031q0-2.175,0-4.349Z" transform="translate(-1903.871 -1875.241)" fill="#373737"/>
  <path id="パス_5143" data-name="パス 5143" d="M1942.965,1935.089h-4.228v-2h4.193c0,.664,0,1.351,0,2.037Z" transform="translate(-1926.013 -1873.716)" fill="#373737"/>
  <path id="パス_5144" data-name="パス 5144" d="M1945.623,1899.979V1895.8h2.09v4.177l.031-.029H1945.6Z" transform="translate(-1922.345 -1893.654)" fill="#373737"/>
  <path id="パス_5145" data-name="パス 5145" d="M1959.5,1944.072v2.063h-4.207v-2.061l-.032.029h4.268Z" transform="translate(-1917.176 -1867.841)" fill="#373737"/>
  <path id="パス_5146" data-name="パス 5146" d="M1958.764,1940H1956.7v-4.153h2.032v4.182Z" transform="translate(-1916.406 -1872.241)" fill="#373737"/>
  <path id="パス_5147" data-name="パス 5147" d="M1955.261,1897.151h4.178v2.092h-4.179l.032.029v-2.149Z" transform="translate(-1917.177 -1892.947)" fill="#373737"/>
  <path id="パス_5148" data-name="パス 5148" d="M1961.583,1897.772l-2.129.1v-2.083h2c.035.658.071,1.338.106,2.02Z" transform="translate(-1914.934 -1893.662)" fill="#373737"/>
  <path id="パス_5149" data-name="パス 5149" d="M1949.751,1895.764h2.052v2.13h-2.038l.035.031-.017-2.192Z" transform="translate(-1920.123 -1893.69)" fill="#373737"/>
  <path id="パス_5150" data-name="パス 5150" d="M1955.3,1896.5v-2.07h2.009v2.038h-2.038Z" transform="translate(-1917.17 -1894.389)" fill="#373737"/>
  <path id="パス_5151" data-name="パス 5151" d="M1950.508,1896.435H1948.4v-2.015h2.078v2.046Z" transform="translate(-1920.848 -1894.392)" fill="#373737"/>
  <path id="パス_5152" data-name="パス 5152" d="M1977.4,1915.824v-2.072h2.024v2.04h-2.057Z" transform="translate(-1905.354 -1884.055)" fill="#373737"/>
  <path id="パス_5153" data-name="パス 5153" d="M1980.186,1913.731h1.957v2.012h-1.957Z" transform="translate(-1903.848 -1884.066)" fill="#373737"/>
  <path id="パス_5154" data-name="パス 5154" d="M1980.1,1910.991h2.084v1.986h-2.057c0-.647,0-1.332,0-2.02Z" transform="translate(-1903.896 -1885.549)" fill="#373737"/>
  <path id="パス_5155" data-name="パス 5155" d="M1967.688,1898.537h2.118v2.113l.031-.029h-2.146l.029.032v-2.15Z" transform="translate(-1910.531 -1892.209)" fill="#373737"/>
  <path id="パス_5156" data-name="パス 5156" d="M1978.114,1915.085l-.018,2.139.029-.031h-2.149l.029.029v-2.149l-.032.031,2.173.011Z" transform="translate(-1906.101 -1883.348)" fill="#373737"/>
  <path id="パス_5157" data-name="パス 5157" d="M1967.076,1900.621h-2.147l.029.032V1898.5l-.031.029h2.15l-.031-.031v2.15Z" transform="translate(-1912.007 -1892.209)" fill="#373737"/>
  <path id="パス_5158" data-name="パス 5158" d="M1936.721,1919.883h-2.127V1917.9h2.09v2.015Z" transform="translate(-1928.228 -1881.836)" fill="#373737"/>
  <path id="パス_5159" data-name="パス 5159" d="M1955.26,1899.913h2.119v2.12l.031-.028h-2.147l.028.028v-2.149Z" transform="translate(-1917.177 -1891.471)" fill="#373737"/>
  <path id="パス_5160" data-name="パス 5160" d="M1965.667,1899.883V1902h-2.121l.031.029-.032-2.147,2.152.029Z" transform="translate(-1912.747 -1891.471)" fill="#373737"/>
  <path id="パス_5161" data-name="パス 5161" d="M1968.429,1899.883v2.056h-2.092v-2.056l-.029.032h2.15Z" transform="translate(-1911.269 -1891.471)" fill="#373737"/>
  <path id="パス_5162" data-name="パス 5162" d="M1980.117,1919.245h2.057v2.094h-2.057l.031.028v-2.149Z" transform="translate(-1903.885 -1881.132)" fill="#373737"/>
  <path id="パス_5163" data-name="パス 5163" d="M1950.507,1897.141v2.1h-2.144l.031.029v-2.1h2.147Z" transform="translate(-1920.865 -1892.937)" fill="#373737"/>
  <path id="パス_5164" data-name="パス 5164" d="M1969.068,1899.912h2.067v2.047H1969.1v-2.076Z" transform="translate(-1909.793 -1891.471)" fill="#373737"/>
  <path id="パス_5165" data-name="パス 5165" d="M1956.641,1901.294h2.152l-.031-.029.032,2.15-2.152-.031.029.029v-2.147Z" transform="translate(-1916.438 -1890.732)" fill="#373737"/>
  <path id="パス_5166" data-name="パス 5166" d="M1941.506,1902.671h1.968v2.018h-1.968Z" transform="translate(-1924.532 -1889.98)" fill="#373737"/>
  <path id="パス_5167" data-name="パス 5167" d="M1946.267,1902.62v2.119h-1.989v-2.083h2.021Z" transform="translate(-1923.049 -1890.008)" fill="#373737"/>
  <path id="パス_5168" data-name="パス 5168" d="M1963.547,1902.675h2.055v2.089h-2.053l.028.031v-2.149Z" transform="translate(-1912.745 -1889.994)" fill="#373737"/>
  <path id="パス_5169" data-name="パス 5169" d="M1940.807,1926.858h-2.058v-2.089h2.059l-.031-.029v2.15Z" transform="translate(-1926.006 -1878.179)" fill="#373737"/>
  <path id="パス_5170" data-name="パス 5170" d="M1968.433,1904.725h-2.069v-2.032h2.04q0,1.027,0,2.064Z" transform="translate(-1911.239 -1889.969)" fill="#373737"/>
  <path id="パス_5171" data-name="パス 5171" d="M1969.138,1904.818v-2.127h1.975v2.1H1969.1Z" transform="translate(-1909.774 -1889.969)" fill="#373737"/>
  <path id="パス_5172" data-name="パス 5172" d="M1964.288,1904.026v2.152l.029-.031h-2.12v-2.119l-.031.031h2.15Z" transform="translate(-1913.484 -1889.255)" fill="#373737"/>
  <path id="パス_5173" data-name="パス 5173" d="M1938.052,1928.217h-2.067v-2.047h2.037c0,.7,0,1.386,0,2.076Z" transform="translate(-1927.485 -1877.414)" fill="#373737"/>
  <path id="パス_5174" data-name="パス 5174" d="M1940.1,1928.273v-2.153l-.029.032h2.061v2.089h-2.061Z" transform="translate(-1925.299 -1877.441)" fill="#373737"/>
  <path id="パス_5175" data-name="パス 5175" d="M1967.721,1906.181q0-1.082,0-2.163l-.031.031,2.2.058-.032-.028q-.025,1.052-.054,2.1l.031-.029h-2.149Z" transform="translate(-1910.531 -1889.26)" fill="#373737"/>
  <path id="パス_5176" data-name="パス 5176" d="M1960.816,1899.3q.025-1.108.054-2.216l-.026.032c.7.018,1.394.04,2.09.06l-.031-.028.029,2.149-2.147-.031Z" transform="translate(-1914.222 -1892.969)" fill="#373737"/>
  <path id="パス_5177" data-name="パス 5177" d="M1980.855,1909.554q-.016,1.094-.032,2.188l.028-.032c-.658,0-1.317,0-2.086,0v-2.162l-.029.032h2.15Z" transform="translate(-1904.623 -1886.302)" fill="#373737"/>
  <path id="パス_5178" data-name="パス 5178" d="M1978.1,1909.549v2.123h-2.121l.031.029v-2.12h2.119Z" transform="translate(-1906.1 -1886.302)" fill="#373737"/>
  <path id="パス_5179" data-name="パス 5179" d="M1932.521,1932.357h-2.06v-2.049h2.031v2.079Z" transform="translate(-1930.438 -1875.201)" fill="#373737"/>
  <path id="パス_5180" data-name="パス 5180" d="M1940.792,1907.521h-2.044v-2.064h2.017c0,.72,0,1.406,0,2.094Z" transform="translate(-1926.007 -1888.49)" fill="#373737"/>
  <path id="パス_5181" data-name="パス 5181" d="M1931.819,1933.792q0-1.075,0-2.149l-.031.031h2.156c0,.714,0,1.4,0,2.084l.029-.034-2.179.037Z" transform="translate(-1929.731 -1874.488)" fill="#373737"/>
  <path id="パス_5182" data-name="パス 5182" d="M1958.791,1933.763h-2.149l.029.031v-2.149l-.029.029h2.119v2.12Z" transform="translate(-1916.438 -1874.486)" fill="#373737"/>
  <path id="パス_5183" data-name="パス 5183" d="M1932.489,1933.023v2.066h-2.015v-2.035h2.046Z" transform="translate(-1930.431 -1873.75)" fill="#373737"/>
  <path id="パス_5184" data-name="パス 5184" d="M1935.277,1933.035v2.063h-2.061V1933l-.028.032,2.12.034Z" transform="translate(-1928.98 -1873.762)" fill="#373737"/>
  <path id="パス_5185" data-name="パス 5185" d="M1957.381,1933.025v2.055h-2.09v-2.055l-.029.031h2.149Z" transform="translate(-1917.176 -1873.749)" fill="#373737"/>
  <path id="パス_5186" data-name="パス 5186" d="M1960.17,1935.143h-2.118v-2.118l-.029.031,2.149-.031-.029,2.15Z" transform="translate(-1915.699 -1873.749)" fill="#373737"/>
  <path id="パス_5187" data-name="パス 5187" d="M1980.887,1935.1h-2.109v-2.026h2.127l-.032-.029q-.007,1.045-.017,2.087Z" transform="translate(-1904.601 -1873.736)" fill="#373737"/>
  <path id="パス_5188" data-name="パス 5188" d="M1961.556,1936.526h-2.124v-2.121l-.028.032,2.152-.031-.032,2.15Z" transform="translate(-1914.961 -1873.01)" fill="#373737"/>
  <path id="パス_5189" data-name="パス 5189" d="M1980.132,1934.419h2.049v2.051h-2.02v-2.083Z" transform="translate(-1903.877 -1873.02)" fill="#373737"/>
  <path id="パス_5190" data-name="パス 5190" d="M1966.338,1907.558v-2.121h2.121l-.032-.029v2.149l.029-.029h-2.147Z" transform="translate(-1911.268 -1888.517)" fill="#373737"/>
  <path id="パス_5191" data-name="パス 5191" d="M1953.848,1935.843h2.127v1.983h-2.089c0-.651,0-1.333,0-2.015Z" transform="translate(-1917.932 -1872.259)" fill="#373737"/>
  <path id="パス_5192" data-name="パス 5192" d="M1969.069,1905.437h2.061v2.089h-2.058l.028.031v-2.149Z" transform="translate(-1909.793 -1888.517)" fill="#373737"/>
  <path id="パス_5193" data-name="パス 5193" d="M1977.355,1935.816h2.116v2.121l.034-.031h-2.149l.029.031v-2.15Z" transform="translate(-1905.362 -1872.271)" fill="#373737"/>
  <path id="パス_5194" data-name="パス 5194" d="M1974.623,1907.528v-2.063h2.09v2.063l.029-.031h-2.149Z" transform="translate(-1906.838 -1888.486)" fill="#373737"/>
  <path id="パス_5195" data-name="パス 5195" d="M1949.105,1898.509v2.115h-2.13l.031.029V1898.5l-.031.029,2.161,0Z" transform="translate(-1921.607 -1892.208)" fill="#373737"/>
  <path id="パス_5196" data-name="パス 5196" d="M1978.734,1937.2h2.124v2.119l.029-.031h-2.15l.031.031v-2.15Z" transform="translate(-1904.624 -1871.533)" fill="#373737"/>
  <path id="パス_5197" data-name="パス 5197" d="M1969.811,1906.788l0,2.149.031-.028-2.153.029.032-2.149-.029.029h2.149Z" transform="translate(-1910.531 -1887.779)" fill="#373737"/>
  <path id="パス_5198" data-name="パス 5198" d="M1956.046,1941.986h-2.121v-1.994h2.084c0,.658,0,1.343,0,2.026Z" transform="translate(-1917.891 -1870.023)" fill="#373737"/>
  <path id="パス_5199" data-name="パス 5199" d="M1949.769,1943.467v-2.129h2.116l-.031-.032q0,1.08,0,2.158l.034-.031h-2.148Z" transform="translate(-1920.13 -1869.32)" fill="#373737"/>
  <path id="パス_5200" data-name="パス 5200" d="M1968.426,1897.121v2.155l.032-.034h-2.15l.031.031v-2.149l-.029.029h2.147Z" transform="translate(-1911.269 -1892.948)" fill="#373737"/>
  <path id="パス_5201" data-name="パス 5201" d="M1951.116,1942.723h2.064v2.087h-2.06l.029.031v-2.149Z" transform="translate(-1919.393 -1868.579)" fill="#373737"/>
  <path id="パス_5202" data-name="パス 5202" d="M1956,1944.812h-2.062v-2.089H1956l-.034-.031v2.149Z" transform="translate(-1917.884 -1868.579)" fill="#373737"/>
  <path id="パス_5203" data-name="パス 5203" d="M1969.07,1908.2h2.12v2.124l.029-.032-2.147.031.029-2.15Z" transform="translate(-1909.792 -1887.04)" fill="#373737"/>
  <path id="パス_5204" data-name="パス 5204" d="M1951.858,1944.072v2.056h-2.091v-2.056l-.029.031h2.148Z" transform="translate(-1920.13 -1867.841)" fill="#373737"/>
  <path id="パス_5205" data-name="パス 5205" d="M1980.117,1908.2h2.057v2.094h-2.057l.031.028v-2.149Z" transform="translate(-1903.885 -1887.04)" fill="#373737"/>
  <path id="パス_5206" data-name="パス 5206" d="M1962.9,1944.072v2.056h-2.091v-2.056l-.029.031h2.149Z" transform="translate(-1914.222 -1867.841)" fill="#373737"/>
  <path id="パス_5207" data-name="パス 5207" d="M1963.545,1944.1h2.067v2.047h-2.038v-2.076Z" transform="translate(-1912.747 -1867.842)" fill="#373737"/>
  <path id="パス_5208" data-name="パス 5208" d="M1971.19,1944.072v2.055h-2.09v-2.055l-.029.031h2.149Z" transform="translate(-1909.792 -1867.841)" fill="#373737"/>
  <path id="パス_5209" data-name="パス 5209" d="M1963.74,1913.724l2.147-.031v6.389h2.12l-.029-.031v2.148l.032-.032h-4.23V1918h-2.066v8.391h1.979v2.1h-4.162v2.182h-2.15v-2.15h-2.118l.028.031v-2.149l-.029.031h4.182v-2.1h-1.971v-4.224l1.994-.092v-2.046h-2.012v-2.1h2.046v-2.184l2.144.031-.028-.031v2.061h2.15v-2.061Z" transform="translate(-1917.176 -1884.086)" fill="#373737"/>
  <path id="パス_5210" data-name="パス 5210" d="M1947.714,1931.192v-2.1H1945.6v-2.172h2.106v-4.173l2.124-.1v-2h2.127v4.178l.031-.029h-2.06v2.15h2.06l-.031-.029v4.237h2.15v2.149H1952v2.119h-2.172v-4.239Z" transform="translate(-1922.345 -1880.363)" fill="#373737"/>
  <path id="パス_5211" data-name="パス 5211" d="M1953.912,1924.191v-6.3H1956v6.3l.029-.031h-2.15Z" transform="translate(-1917.915 -1881.839)" fill="#373737"/>
  <path id="パス_5212" data-name="パス 5212" d="M1949.734,1917.876h4.188v2.031h-4.157v-2.063Z" transform="translate(-1920.132 -1881.867)" fill="#373737"/>
  <path id="パス_5213" data-name="パス 5213" d="M1954.007,1923.359v2.121h-4.27l.031.029v-2.15l-.031.029Z" transform="translate(-1920.13 -1878.917)" fill="#373737"/>
  <path id="パス_5214" data-name="パス 5214" d="M1953.88,1915.842v-2.149h2.15v2.149Z" transform="translate(-1917.915 -1884.086)" fill="#373737"/>
  <path id="パス_5215" data-name="パス 5215" d="M1949.093,1917.164h-2.063v-2.041h2.032v2.072Z" transform="translate(-1921.578 -1883.321)" fill="#373737"/>
  <path id="パス_5216" data-name="パス 5216" d="M1944.982,1918.573h-2.149v-2.06h2.149Z" transform="translate(-1923.822 -1882.578)" fill="#373737"/>
  <path id="パス_5217" data-name="パス 5217" d="M1948.354,1916.484l2.193.034-.032-.029q-.021,1.066-.043,2.132l.031-.032c-.665,0-1.329,0-2.118,0v-2.136Z" transform="translate(-1920.87 -1882.61)" fill="#373737"/>
  <path id="パス_5218" data-name="パス 5218" d="M1946.362,1919.984h-2.147v-2.148h2.147Z" transform="translate(-1923.083 -1881.871)" fill="#373737"/>
  <path id="パス_5219" data-name="パス 5219" d="M1945.6,1921.366v-2.149h2.06v2.149Z" transform="translate(-1922.345 -1881.132)" fill="#373737"/>
  <path id="パス_5220" data-name="パス 5220" d="M1953.28,1922.64h-2.116v-1.981h2.087c0,.649,0,1.332,0,2.015Z" transform="translate(-1919.368 -1880.361)" fill="#373737"/>
  <path id="パス_5221" data-name="パス 5221" d="M1954.647,1924.11l-2.147.031q.03-1.094.063-2.19l-.029.032,2.116.038-.032-.028v2.149Z" transform="translate(-1918.653 -1879.67)" fill="#373737"/>
  <path id="パス_5222" data-name="パス 5222" d="M1961.553,1912.312l-.028,2.15.028-.031h-2.15l.028.031v-2.15Z" transform="translate(-1914.961 -1884.825)" fill="#373737"/>
  <path id="パス_5223" data-name="パス 5223" d="M1958.023,1904.795l0-2.149h2.055v2.149Z" transform="translate(-1915.699 -1889.994)" fill="#373737"/>
  <path id="パス_5224" data-name="パス 5224" d="M1956.642,1911.7v-2.149h2.061v2.149Z" transform="translate(-1916.438 -1886.301)" fill="#373737"/>
  <path id="パス_5225" data-name="パス 5225" d="M1961.571,1908.845h-2.123v-1.994h2.086v2.024Z" transform="translate(-1914.937 -1887.745)" fill="#373737"/>
  <path id="パス_5226" data-name="パス 5226" d="M1963.576,1920.082l-.029-6.389h2.116v6.386l.032-.028h-2.149Z" transform="translate(-1912.745 -1884.086)" fill="#373737"/>
  <path id="パス_5227" data-name="パス 5227" d="M1971.17,1916.543h-2.049v-4.165h2.02c0,1.4,0,2.8,0,4.2Z" transform="translate(-1909.765 -1884.789)" fill="#373737"/>
  <path id="パス_5228" data-name="パス 5228" d="M1966.35,1915.736v-1.981h2v1.981Z" transform="translate(-1911.246 -1884.053)" fill="#373737"/>
  <path id="パス_5229" data-name="パス 5229" d="M1967.078,1919.984l-2.152-.032.031.032v-2.148l-.032.028,2.152-.028Z" transform="translate(-1912.008 -1881.871)" fill="#373737"/>
  <path id="パス_5230" data-name="パス 5230" d="M1966.308,1910.932h2.149v2.053h-2.149Z" transform="translate(-1911.269 -1885.563)" fill="#373737"/>
  <path id="パス_5231" data-name="パス 5231" d="M1967.689,1909.551h2.149v2.149h-2.149Z" transform="translate(-1910.531 -1886.301)" fill="#373737"/>
  <path id="パス_5232" data-name="パス 5232" d="M1960.785,1935.175v-2.149h8.41v4.268h-2.053v-2.055h-2.089v2.055h-2.15v-2.119Z" transform="translate(-1914.222 -1873.748)" fill="#373737"/>
  <path id="パス_5233" data-name="パス 5233" d="M1962.165,1931.031v-2.118h2.15l-.029-.031v2.148l.032-.032Z" transform="translate(-1913.484 -1875.963)" fill="#373737"/>
  <path id="パス_5234" data-name="パス 5234" d="M1967.079,1931h-2.153l.031.032v-2.148l-.031.029,2.152-.032-.031,2.152Z" transform="translate(-1912.008 -1875.964)" fill="#373737"/>
  <path id="パス_5235" data-name="パス 5235" d="M1969.808,1928.883l.032,2.148-2.152-.032.031.032-.032-2.148,2.152.029Z" transform="translate(-1910.531 -1875.963)" fill="#373737"/>
  <path id="パス_5236" data-name="パス 5236" d="M1960.82,1930.275h2.113v2.149h-2.149l.071-2.179Z" transform="translate(-1914.222 -1875.235)" fill="#373737"/>
  <path id="パス_5237" data-name="パス 5237" d="M1965.664,1930.262v2.057h-2.084v-2.057l-.032.032h2.147Z" transform="translate(-1912.745 -1875.226)" fill="#373737"/>
  <path id="パス_5238" data-name="パス 5238" d="M1968.425,1930.262v2.061h-2.086v-2.061l-.031.032h2.147Z" transform="translate(-1911.268 -1875.226)" fill="#373737"/>
  <path id="パス_5239" data-name="パス 5239" d="M1961.552,1933.794H1959.4v-2.149h2.148Z" transform="translate(-1914.961 -1874.486)" fill="#373737"/>
  <path id="パス_5240" data-name="パス 5240" d="M1968.457,1940.7h-2.149v-2.15h2.149Z" transform="translate(-1911.269 -1870.794)" fill="#373737"/>
  <path id="パス_5241" data-name="パス 5241" d="M1974.594,1921.979h2.149v2.147h-2.149Z" transform="translate(-1906.838 -1879.655)" fill="#373737"/>
  <path id="パス_5242" data-name="パス 5242" d="M1975.975,1923.359h2.149v2.15h-2.149Z" transform="translate(-1906.1 -1878.917)" fill="#373737"/>
  <path id="パス_5243" data-name="パス 5243" d="M1979.5,1924.741v2.147h-2.147v-2.147Z" transform="translate(-1905.361 -1878.178)" fill="#373737"/>
  <path id="パス_5244" data-name="パス 5244" d="M1971.883,1935.813h1.974v2.023h-1.974Z" transform="translate(-1908.288 -1872.258)" fill="#373737"/>
  <path id="パス_5245" data-name="パス 5245" d="M1969.072,1927.533l2.147-.031v2.12h-2.15l.031.029V1927.5Z" transform="translate(-1909.793 -1876.702)" fill="#373737"/>
  <path id="パス_5246" data-name="パス 5246" d="M1972.7,1928.367l-2.147-.031.029.031v-2.12h-2.153v-2.173h-2.086v-2.095l-.029.031,4.267-.031v2.118h2.119Z" transform="translate(-1911.268 -1879.655)" fill="#373737"/>
  <path id="パス_5247" data-name="パス 5247" d="M1964.927,1920.63l2.149-.032-.028,2.15.029-.031h-2.149l.029.029V1920.6Z" transform="translate(-1912.007 -1880.394)" fill="#373737"/>
  <path id="パス_5248" data-name="パス 5248" d="M1963.579,1921.368v-2.153l-.032.032h2.147l-.031-.032v2.155l.031-.032h-2.149Z" transform="translate(-1912.745 -1881.133)" fill="#373737"/>
  <path id="パス_5249" data-name="パス 5249" d="M1969.81,1926.121v2.15l.028-.031-2.147.031v-2.15l2.15.031Z" transform="translate(-1910.531 -1877.44)" fill="#373737"/>
  <path id="パス_5250" data-name="パス 5250" d="M1969.839,1942.078h-2.15v-2.148h2.149Z" transform="translate(-1910.531 -1870.056)" fill="#373737"/>
  <path id="パス_5251" data-name="パス 5251" d="M1969.07,1943.46l0-2.149h2.147v2.149Z" transform="translate(-1909.792 -1869.318)" fill="#373737"/>
  <path id="パス_5252" data-name="パス 5252" d="M1980.849,1903.437h-6.189v-6.262h6.189Z" transform="translate(-1906.803 -1892.919)" fill="#373737"/>
  <path id="パス_5253" data-name="パス 5253" d="M1939.443,1944.835h-6.231v-6.223h6.231Z" transform="translate(-1928.967 -1870.761)" fill="#373737"/>
  <path id="パス_5254" data-name="パス 5254" d="M1933.207,1903.4v-6.23h6.228v6.23Z" transform="translate(-1928.97 -1892.92)" fill="#373737"/>
  <path id="パス_5255" data-name="パス 5255" d="M1964.283,1929.716h-2.061v-6.326h2.063l-.029-.031v2.172h2.15v2.1h-2.15v2.118Z" transform="translate(-1913.454 -1878.917)" fill="#373737"/>
  <path id="パス_5256" data-name="パス 5256" d="M1958.023,1926.89l0-2.149h4.174v2.149Z" transform="translate(-1915.699 -1878.178)" fill="#373737"/>
  <path id="パス_5257" data-name="パス 5257" d="M1964.283,1922.716h-2.06v-2.087h2.064l-.032-.031v2.149Z" transform="translate(-1913.453 -1880.394)" fill="#373737"/>
  <path id="パス_5258" data-name="パス 5258" d="M1963.576,1924.128l0-2.15-.028.031h2.149l-.029-.029v2.118h-2.119Z" transform="translate(-1912.745 -1879.656)" fill="#373737"/>
  <path id="パス_5259" data-name="パス 5259" d="M1963.576,1929.653l0-2.152-.028.031,2.15-.029-.032,2.149.031-.029h-2.149Z" transform="translate(-1912.745 -1876.703)" fill="#373737"/>
  <path id="パス_5260" data-name="パス 5260" d="M1961.571,1930.939h-2.123v-1.994h2.086v2.026Z" transform="translate(-1914.937 -1875.93)" fill="#373737"/>
  <path id="パス_5261" data-name="パス 5261" d="M1956,1923.36l.029,2.15h-2.121v-2.152l-.029.032h2.149Z" transform="translate(-1917.915 -1878.918)" fill="#373737"/>
  <path id="パス_5262" data-name="パス 5262" d="M1953.268,1928.24h-2.149v-2.063h2.149Z" transform="translate(-1919.391 -1877.411)" fill="#373737"/>
  <path id="パス_5263" data-name="パス 5263" d="M1968.456,1908.17v2.147h-2.147v-2.147Z" transform="translate(-1911.268 -1887.04)" fill="#373737"/>
  <path id="パス_5264" data-name="パス 5264" d="M1962.166,1898.5h2.149v2.149h-2.149Z" transform="translate(-1913.484 -1892.208)" fill="#373737"/>
  <path id="パス_5265" data-name="パス 5265" d="M1964.927,1928.269v-2.147h2.147v2.147Z" transform="translate(-1912.007 -1877.44)" fill="#373737"/>
  <path id="パス_5266" data-name="パス 5266" d="M1966.308,1927.5h2.149v2.149h-2.149Z" transform="translate(-1911.269 -1876.702)" fill="#373737"/>
  <path id="パス_5267" data-name="パス 5267" d="M1968.456,1926.888h-2.147v-2.147h2.147Z" transform="translate(-1911.268 -1878.178)" fill="#373737"/>
</svg>
