<svg xmlns="http://www.w3.org/2000/svg" xmlns:xlink="http://www.w3.org/1999/xlink" width="505.806" height="76.83" viewBox="0 0 505.806 76.83">
  <defs>
    <filter id="Union_2" x="0" y="0" width="505.806" height="41.677" filterUnits="userSpaceOnUse">
      <feOffset input="SourceAlpha"/>
      <feGaussianBlur stdDeviation="1.5" result="blur"/>
      <feFlood flood-opacity="0.549"/>
      <feComposite operator="in" in2="blur"/>
      <feComposite in="SourceGraphic"/>
    </filter>
    <filter id="_29.10.2023_-_DAEWOO_HOTEL_HANOI" x="33" y="42.83" width="439" height="34" filterUnits="userSpaceOnUse">
      <feOffset input="SourceAlpha"/>
      <feGaussianBlur stdDeviation="1.5" result="blur-2"/>
      <feFlood flood-opacity="0.549"/>
      <feComposite operator="in" in2="blur-2"/>
      <feComposite in="SourceGraphic"/>
    </filter>
  </defs>
  <g id="Group_326" data-name="Group 326" transform="translate(-625.5 -739.151)">
    <g transform="matrix(1, 0, 0, 1, 625.5, 739.15)" filter="url(#Union_2)">
      <path id="Union_2-2" data-name="Union 2" d="M-729.607,384.9a4.4,4.4,0,0,1-.88-2.209c-.016-.192-.016-.383-.016-.576a30.92,30.92,0,0,1,2.144-9.552s-2.255,2.736-3.327,3.248a1.269,1.269,0,0,1-.545.144c-.527,0-.864-.481-.864-1.232a3.973,3.973,0,0,1,.16-.977c.059-.215.129-.433.207-.65-1.252.956-2.926,2.074-4.463,2.074-1.088,0-2.112-.561-2.848-2.192-.049-.144-.129-.208-.224-.208-.816,0-3.168,3.3-3.2,3.632a.736.736,0,0,1-.656.32c-.224,0-.416-.1-.416-.3v-.064l.994-3.976c-.623.493-4.553,2.713-6.9,2.713-1.024,0-1.744-.432-1.744-1.633a4.718,4.718,0,0,1,.16-1.136c.1-.607.3-1.168.3-1.3v-.016s-.24.224-.608.576a1.517,1.517,0,0,1,.064.481v.064a.637.637,0,0,1-.511.3.421.421,0,0,1-.193-.049l-.048-.144c-.224.224-.32.3-.592.561-1.264,1.2-2.7,2.543-3.392,2.543a.681.681,0,0,0-.08-.016.712.712,0,0,1-.416-.256.884.884,0,0,1-.176-.576,1.267,1.267,0,0,1,.015-.24,2.915,2.915,0,0,1,.288-.9,4.811,4.811,0,0,1,2.688-2.592,2.967,2.967,0,0,1,.864-.128,1.514,1.514,0,0,1,1.1.4,3.173,3.173,0,0,1,1.344-.8.3.3,0,0,1,.128.032c.208.031.32.239.32.591a4.731,4.731,0,0,1-.4,1.616,3.6,3.6,0,0,0-.256,1.2c0,.832.528,1.137,1.312,1.137,2.031,0,5.808-2.145,6.368-2.849.1-.192.208-.256.3-.256a.219.219,0,0,1,.189.107l.419-1.676a.567.567,0,0,1,.56-.464.563.563,0,0,1,.576.576v.031l-1.088,3.632c.9-1.168,1.808-2.176,2.512-2.176.32,0,.592.193.8.64.7,1.616,1.552,2.24,2.528,2.24,1.264,0,2.768-1.072,4.48-2.32a.253.253,0,0,1,.208-.1.217.217,0,0,1,.054.006,4.08,4.08,0,0,1,2.378-2.279,1.952,1.952,0,0,1,.592-.08,1.725,1.725,0,0,1,1.52.96,53.779,53.779,0,0,1,3.919-9.472c.768-1.281,1.328-1.648,1.7-1.648a.5.5,0,0,1,.48.5.2.2,0,0,1-.016.1v.112c0,3.28-5.728,11.088-5.728,11.088l-1.168,3.168a27.489,27.489,0,0,0-1.553,7.871,3.869,3.869,0,0,0,.016.464c.128,1.232.88,1.616,1.168,1.616a.4.4,0,0,1,.384.352.27.27,0,0,1-.16.239.32.32,0,0,1-.176.049C-729.287,385.256-729.607,384.9-729.607,384.9Zm.448-14.177A4.557,4.557,0,0,0-731.543,373a4.882,4.882,0,0,0-.672,1.968c0,.208.064.336.208.336.192,0,.544-.257,1.12-.928,1.951-2.256,2.527-2.976,2.527-2.976s-.064-.688-.655-.688C-729.063,370.712-729.111,370.728-729.159,370.728Zm-26.833,3.137c0,.048.032.08.1.08.3,0,1.264-.769,2.272-2.112a.376.376,0,0,0-.256-.08C-754.647,371.752-755.991,373.5-755.991,373.864Zm32.256-12c-1.328,2.1-2.944,7.392-2.944,7.392,1.376-2.384,3.44-6.384,3.744-7.1a7.317,7.317,0,0,0,.592-1.616c0-.1-.032-.144-.112-.144h-.015C-722.855,360.425-723.735,361.865-723.735,361.865Zm205.344,23.045L-534.733,364.4l-.039,15.639a4.151,4.151,0,0,0,.936,2.964,3.329,3.329,0,0,0,2.613,1.093c.1,0,.157.077.157.234s-.052.234-.157.234q-1.092,0-1.677-.04l-2.457-.039-2.34.039q-.663.039-1.872.04c-.1,0-.156-.078-.156-.234s.051-.234.156-.234A3.271,3.271,0,0,0-536.974,383a4.5,4.5,0,0,0,.995-2.964l.039-17.121a8.976,8.976,0,0,0-2.009-1.755,3.574,3.574,0,0,0-1.813-.508c-.051,0-.077-.077-.077-.234s.026-.234.077-.234l2.106.04q.625.038,1.678.039t1.774-.039q.722-.039.956-.04a.708.708,0,0,1,.488.157,2.288,2.288,0,0,1,.409.585q.467.7.936,1.287l12.987,16.223.077-13.728a4.2,4.2,0,0,0-.916-2.964,3.316,3.316,0,0,0-2.633-1.093c-.1,0-.156-.077-.156-.234s.051-.234.156-.234l1.521.04q1.561.077,2.613.077.819,0,2.3-.077l1.911-.04c.078,0,.117.078.117.234s-.039.234-.117.234a3.343,3.343,0,0,0-2.593,1.093,4.374,4.374,0,0,0-1.034,2.964l-.039,20.124c.026.078-.032.149-.175.214a1.169,1.169,0,0,1-.488.1A.511.511,0,0,1-518.391,384.91Zm-326.469,0L-861.2,364.4l-.039,15.639A4.146,4.146,0,0,0-860.3,383a3.329,3.329,0,0,0,2.613,1.093c.1,0,.156.077.156.234s-.051.234-.156.234q-1.092,0-1.677-.04l-2.457-.039-2.34.039q-.663.039-1.872.04c-.1,0-.157-.078-.157-.234s.052-.234.157-.234A3.268,3.268,0,0,0-863.444,383a4.492,4.492,0,0,0,.995-2.964l.04-17.121a8.973,8.973,0,0,0-2.009-1.755,3.576,3.576,0,0,0-1.813-.508c-.052,0-.078-.077-.078-.234s.026-.234.078-.234l2.106.04q.624.038,1.677.039t1.775-.039q.721-.039.956-.04a.705.705,0,0,1,.487.157,2.263,2.263,0,0,1,.409.585q.468.7.936,1.287l12.987,16.223.078-13.728a4.2,4.2,0,0,0-.916-2.964,3.316,3.316,0,0,0-2.633-1.093c-.1,0-.157-.077-.157-.234s.052-.234.157-.234l1.521.04q1.559.077,2.613.077.819,0,2.3-.077l1.911-.04c.078,0,.117.078.117.234s-.039.234-.117.234a3.346,3.346,0,0,0-2.594,1.093,4.378,4.378,0,0,0-1.033,2.964l-.039,20.124c.026.078-.032.149-.175.214a1.172,1.172,0,0,1-.488.1A.51.51,0,0,1-844.86,384.91Zm203.463-.819a7.938,7.938,0,0,1-3.433-2.691,6.887,6.887,0,0,1-1.247-4.1V363.342a5.058,5.058,0,0,0-.215-1.7,1.286,1.286,0,0,0-.76-.779,4.726,4.726,0,0,0-1.638-.215c-.077,0-.117-.077-.117-.234s.04-.234.117-.234l1.912.04q1.638.077,2.768.077,1.014,0,2.808-.077l1.95-.04c.1,0,.163.078.176.234s-.02.234-.1.234a4.826,4.826,0,0,0-1.736.234,1.224,1.224,0,0,0-.741.78,7.029,7.029,0,0,0-.214,1.755V375.94a7.923,7.923,0,0,0,1.794,5.636,6.57,6.57,0,0,0,5.109,2.008,8.594,8.594,0,0,0,3.2-.6,12.011,12.011,0,0,0,3.2-2.009l-.039-17.55a3.3,3.3,0,0,0-.468-2.223,2.925,2.925,0,0,0-2.106-.546c-.078,0-.117-.077-.117-.234s.026-.234.078-.234l1.949.04q1.716.077,2.808.077.976,0,2.769-.077l1.95-.04c.1,0,.162.078.175.234s-.02.234-.1.234a5.217,5.217,0,0,0-1.735.215,1.223,1.223,0,0,0-.76.76,5.516,5.516,0,0,0-.2,1.715V381.4a4.824,4.824,0,0,0,.234,1.735,1.306,1.306,0,0,0,.9.76,7.978,7.978,0,0,0,2.067.2c.077,0,.117.077.117.234s-.04.234-.117.234l-3.822-.04-2.964.04c-.286,0-.462-.04-.526-.117a1.181,1.181,0,0,1-.1-.625V382.1a12.618,12.618,0,0,1-3.763,2.242,12.028,12.028,0,0,1-4.115.683A12.464,12.464,0,0,1-641.4,384.091Zm-294.255-.936a11.155,11.155,0,0,1-4.446-4.739,13.938,13.938,0,0,1-1.365-6.065,11.936,11.936,0,0,1,1.892-6.728,12.233,12.233,0,0,1,5.031-4.368,15.568,15.568,0,0,1,6.8-1.5,22.3,22.3,0,0,1,3.744.331,16.745,16.745,0,0,1,3.159.8,1.309,1.309,0,0,1,.409.351,1.092,1.092,0,0,1,.1.546l.273,5.226c0,.077-.058.117-.175.117a.284.284,0,0,1-.254-.117,11.952,11.952,0,0,0-3.685-4.583,8.478,8.478,0,0,0-5.089-1.618,6.6,6.6,0,0,0-5.674,2.691q-1.97,2.691-1.969,7.565a17.331,17.331,0,0,0,1.229,6.552,12.211,12.211,0,0,0,3.335,4.837,7,7,0,0,0,4.641,1.794q4.016,0,7.488-5.928a.229.229,0,0,1,.194-.117.207.207,0,0,1,.234.234l-.234,4.486a2.321,2.321,0,0,1-.156.643.777.777,0,0,1-.429.253,21.428,21.428,0,0,1-7.176,1.21A14.98,14.98,0,0,1-935.652,383.155Zm-34.476.936a7.929,7.929,0,0,1-3.432-2.691,6.881,6.881,0,0,1-1.248-4.1V363.342a5.062,5.062,0,0,0-.214-1.7,1.288,1.288,0,0,0-.76-.779,4.73,4.73,0,0,0-1.638-.215c-.078,0-.117-.077-.117-.234s.039-.234.117-.234l1.911.04q1.638.077,2.769.077,1.014,0,2.808-.077l1.949-.04c.1,0,.163.078.175.234s-.019.234-.1.234a4.82,4.82,0,0,0-1.735.234,1.226,1.226,0,0,0-.742.78,7.032,7.032,0,0,0-.214,1.755V375.94a7.927,7.927,0,0,0,1.794,5.636,6.57,6.57,0,0,0,5.109,2.008,8.59,8.59,0,0,0,3.2-.6,12.029,12.029,0,0,0,3.2-2.009l-.04-17.55a5.721,5.721,0,0,0-.194-1.735,1.29,1.29,0,0,0-.76-.8,4.971,4.971,0,0,0-1.775-.234c-.052,0-.078-.052-.078-.156a.433.433,0,0,1,.04-.2.451.451,0,0,1,.077-.117l2.067.04q1.716.077,2.73.077a17.052,17.052,0,0,0,4-.331q1.228-.332,1.228-1.15a1.117,1.117,0,0,0-.117-.508,4.6,4.6,0,0,0-.273-.468,4.6,4.6,0,0,1-.391-.721,1.965,1.965,0,0,1-.117-.722,1.537,1.537,0,0,1,.546-1.287,2.079,2.079,0,0,1,1.326-.429,1.866,1.866,0,0,1,1.482.625,2.4,2.4,0,0,1,.546,1.638,2.651,2.651,0,0,1-.6,1.794,4.27,4.27,0,0,1-1.521,1.111q-.917.409-2.516.956a2.093,2.093,0,0,0-1.17.779,3.861,3.861,0,0,0-.273,1.755V381.4a4.8,4.8,0,0,0,.234,1.735,1.3,1.3,0,0,0,.9.76,7.978,7.978,0,0,0,2.067.2c.078,0,.117.077.117.234s-.039.234-.117.234l-3.822-.04-2.964.04c-.286,0-.462-.04-.527-.117a1.194,1.194,0,0,1-.1-.625V382.1a12.633,12.633,0,0,1-3.764,2.242,12.028,12.028,0,0,1-4.115.683A12.468,12.468,0,0,1-970.128,384.091Zm-31.083.507q-.545-.039-1.326-.078t-1.755-.039l-2.886.039q-.7.039-1.989.04c-.051,0-.077-.078-.077-.234s.026-.234.077-.234a5.691,5.691,0,0,0,1.755-.2,1.227,1.227,0,0,0,.76-.76,4.765,4.765,0,0,0,.175-1.735v-8.424h-2.574c-.1,0-.156-.183-.156-.546s.052-.546.156-.546h2.574v-8.541a6.141,6.141,0,0,0-.292-1.715,1.288,1.288,0,0,0-.76-.76,4.726,4.726,0,0,0-1.638-.215c-.051,0-.077-.077-.077-.234s.026-.234.077-.234l1.989.04q1.716.077,2.808.077,1.288,0,2.574-.117,1.639-.078,2.418-.077a16.712,16.712,0,0,1,7.254,1.5,11.708,11.708,0,0,1,4.914,4.192,11.029,11.029,0,0,1,1.755,6.162,12.1,12.1,0,0,1-1.852,6.649,12.743,12.743,0,0,1-4.9,4.5,13.865,13.865,0,0,1-6.552,1.6Q-999.847,384.715-1001.212,384.6Zm-1.013-3.627a3.4,3.4,0,0,0,.682,2.282,3.332,3.332,0,0,0,2.437.682,8.6,8.6,0,0,0,4.758-1.306,8.482,8.482,0,0,0,3.139-3.8,14.694,14.694,0,0,0,1.112-6.007,16.756,16.756,0,0,0-.975-5.713,10.1,10.1,0,0,0-3.1-4.466,8.2,8.2,0,0,0-5.4-1.755,2.941,2.941,0,0,0-2.106.566,2.81,2.81,0,0,0-.545,1.969v8.463h3.393q.155,0,.156.546c0,.364-.052.546-.156.546h-3.393Zm454.194,3.51q-1.639-.078-2.614-.078-1.014,0-2.5.078-1.4.078-2.067.078c-.1,0-.156-.078-.156-.234s.052-.234.156-.234a4.022,4.022,0,0,0,1.678-.254.933.933,0,0,0,.507-.916,4.417,4.417,0,0,0-.468-1.638l-3.432-8.23h-6.162l-2.652,6.475a6.557,6.557,0,0,0-.624,2.379,1.783,1.783,0,0,0,.9,1.658,5.637,5.637,0,0,0,2.768.526c.1,0,.157.077.157.234s-.066.234-.2.234q-.508,0-2.223-.078-1.949-.078-2.964-.078-.937,0-2.184.078-1.092.078-1.794.078c-.1,0-.157-.078-.157-.234s.052-.234.157-.234a3.977,3.977,0,0,0,2.554-1.268,10.5,10.5,0,0,0,2.4-3.568l8.229-19.422c0-.077.091-.117.274-.117a.694.694,0,0,1,.507.157l8.736,21.411a15.685,15.685,0,0,0,.878,1.832,1.9,1.9,0,0,0,.838.722,4.06,4.06,0,0,0,1.638.254c.078,0,.117.077.117.234s-.039.234-.117.234Q-546.55,384.559-548.031,384.481Zm-14.586-12.519h5.265L-560,365.6Zm-36.933,12.558-3.081-.039-3.237.039q-.779.039-2.106.04c-.1,0-.156-.078-.156-.234s.052-.234.156-.234a7.262,7.262,0,0,0,2.067-.215,1.432,1.432,0,0,0,.916-.76,3.991,3.991,0,0,0,.215-1.715l-.04-8.541-6.2-9.438a8.776,8.776,0,0,0-1.774-2.106,2.726,2.726,0,0,0-1.7-.663c-.1,0-.163-.077-.175-.234s.019-.234.1-.234l2.028.04q1.482.077,2.184.077.975,0,2.925-.077l1.989-.04c.078,0,.117.052.117.157a.412.412,0,0,1-.059.214.164.164,0,0,1-.137.1,4.87,4.87,0,0,0-1.463.157q-.448.155-.448.507a1.7,1.7,0,0,0,.39.9l5.85,8.969,3.667-7.137a3.476,3.476,0,0,0,.351-1.4,1.85,1.85,0,0,0-.6-1.443,2.5,2.5,0,0,0-1.735-.546c-.1,0-.157-.077-.157-.234s.04-.234.117-.234l2.106.04q1.951.077,3,.077.663,0,1.521-.077l1.326-.04c.13,0,.2.078.2.234s-.065.234-.2.234a3.972,3.972,0,0,0-2.593,1.034,11.415,11.415,0,0,0-2.438,3.217l-3.9,7.41V381.4a5.2,5.2,0,0,0,.214,1.755,1.241,1.241,0,0,0,.839.741,7.5,7.5,0,0,0,2.028.2c.1,0,.157.077.157.234s-.052.234-.157.234Q-598.809,384.559-599.551,384.519Zm-59.2,0-2.925-.039-2.808.039q-.741.039-2.028.04c-.052,0-.085-.078-.1-.234s.019-.234.1-.234a5.491,5.491,0,0,0,1.735-.2,1.061,1.061,0,0,0,.683-.741,7.068,7.068,0,0,0,.156-1.755v-8.97h-11.232v8.97a5.035,5.035,0,0,0,.214,1.715,1.293,1.293,0,0,0,.76.76,5.037,5.037,0,0,0,1.716.215c.078,0,.117.077.117.234s-.039.234-.117.234q-1.287,0-1.989-.04l-2.886-.039-2.691.039q-.741.039-1.949.04c-.078,0-.117-.078-.117-.234s.039-.234.117-.234a5.326,5.326,0,0,0,1.7-.2,1.113,1.113,0,0,0,.7-.741,6.285,6.285,0,0,0,.176-1.755V363.342a3.145,3.145,0,0,0-.468-2.164,3.005,3.005,0,0,0-2.106-.526c-.078,0-.117-.077-.117-.234s.039-.234.117-.234l1.872.04q1.716.077,2.768.077t2.848-.077l1.989-.04c.051,0,.077.078.077.234s-.026.234-.077.234a4.655,4.655,0,0,0-1.716.234,1.232,1.232,0,0,0-.722.8,7.114,7.114,0,0,0-.214,1.735v7.917h11.193v-7.917a3.529,3.529,0,0,0-.488-2.223,2.845,2.845,0,0,0-2.086-.546c-.052,0-.085-.077-.1-.234s.02-.234.1-.234l1.911.04q1.716.077,2.808.077,1.053,0,2.769-.077l1.989-.04c.077,0,.117.078.117.234s-.04.234-.117.234a4.854,4.854,0,0,0-1.7.215,1.227,1.227,0,0,0-.722.76,6.868,6.868,0,0,0-.273,1.715V381.4a4.36,4.36,0,0,0,.253,1.7,1.422,1.422,0,0,0,.839.779,5.243,5.243,0,0,0,1.716.215c.051,0,.077.077.077.234s-.026.234-.077.234Q-658.05,384.559-658.753,384.519Zm-38.415,0-3.549-.039-3.354.039q-.859.039-2.418.04c-.077,0-.117-.078-.117-.234s.026-.234.078-.234a10.615,10.615,0,0,0,2.4-.2,1.47,1.47,0,0,0,1.033-.76,4.174,4.174,0,0,0,.274-1.735V363.342a2.806,2.806,0,0,0-.351-1.814,1.922,1.922,0,0,0-1.482-.448h-.507a4.737,4.737,0,0,0-2.614.839,7.419,7.419,0,0,0-2.183,2.223,7.011,7.011,0,0,0-1.093,3.022q0,.078-.194.078a.415.415,0,0,1-.215-.059c-.065-.04-.085-.072-.059-.1q.2-1.482.585-7.761c0-.078.066-.117.2-.117a.567.567,0,0,1,.214.039c.066.026.1.065.1.117q0,.819,1.755.819,3.159.117,7.916.117,2.145,0,4.8-.077l2.731-.04a6.485,6.485,0,0,0,1.872-.194,1.074,1.074,0,0,0,.741-.78.291.291,0,0,1,.293-.1q.215.019.175.176-.117,1.716-.234,4.309t-.078,3.49c0,.078-.077.117-.234.117-.208,0-.311-.052-.311-.156a6.248,6.248,0,0,0-.722-2.964,5.746,5.746,0,0,0-1.989-2.184,4.966,4.966,0,0,0-2.75-.819h-.507a2.312,2.312,0,0,0-1.112.2.868.868,0,0,0-.41.644,12.691,12.691,0,0,0-.117,1.5l.039,17.979a4.454,4.454,0,0,0,.254,1.755,1.408,1.408,0,0,0,.995.741,10.574,10.574,0,0,0,2.417.2c.078,0,.117.077.117.234s-.039.234-.117.234Q-696.349,384.559-697.167,384.519Zm-111.774,0-2.925-.039-2.808.039q-.741.039-2.029.04c-.051,0-.085-.078-.1-.234s.02-.234.1-.234a5.5,5.5,0,0,0,1.736-.2,1.06,1.06,0,0,0,.682-.741,7.026,7.026,0,0,0,.156-1.755v-8.97h-11.232v8.97a5.032,5.032,0,0,0,.215,1.715,1.29,1.29,0,0,0,.76.76,5.031,5.031,0,0,0,1.715.215c.078,0,.117.077.117.234s-.039.234-.117.234q-1.286,0-1.989-.04l-2.885-.039-2.691.039q-.741.039-1.95.04c-.078,0-.117-.078-.117-.234s.039-.234.117-.234a5.323,5.323,0,0,0,1.7-.2,1.113,1.113,0,0,0,.7-.741,6.288,6.288,0,0,0,.175-1.755V363.342a3.14,3.14,0,0,0-.468-2.164,3.005,3.005,0,0,0-2.106-.526c-.078,0-.117-.077-.117-.234s.039-.234.117-.234l1.872.04q1.716.077,2.769.077t2.847-.077l1.989-.04c.052,0,.078.078.078.234s-.026.234-.078.234a4.658,4.658,0,0,0-1.716.234,1.231,1.231,0,0,0-.721.8,7.108,7.108,0,0,0-.215,1.735v7.917h11.193v-7.917a3.529,3.529,0,0,0-.488-2.223,2.845,2.845,0,0,0-2.086-.546c-.052,0-.085-.077-.1-.234s.019-.234.1-.234l1.911.04q1.716.077,2.808.077,1.053,0,2.769-.077l1.989-.04c.078,0,.117.078.117.234s-.039.234-.117.234a4.855,4.855,0,0,0-1.7.215,1.23,1.23,0,0,0-.722.76,6.917,6.917,0,0,0-.273,1.715V381.4a4.341,4.341,0,0,0,.254,1.7,1.418,1.418,0,0,0,.838.779,5.246,5.246,0,0,0,1.716.215c.052,0,.078.077.078.234s-.026.234-.078.234Q-808.239,384.559-808.941,384.519Zm-65.56-.039q-1.638-.078-2.613-.078-1.014,0-2.5.078-1.4.078-2.067.078c-.1,0-.156-.078-.156-.234s.051-.234.156-.234a4.014,4.014,0,0,0,1.677-.254.932.932,0,0,0,.508-.916,4.436,4.436,0,0,0-.468-1.638l-3.433-8.23h-6.161l-2.652,6.475a6.557,6.557,0,0,0-.624,2.379,1.784,1.784,0,0,0,.9,1.658,5.641,5.641,0,0,0,2.769.526c.1,0,.156.077.156.234s-.065.234-.194.234q-.508,0-2.223-.078-1.951-.078-2.965-.078-.935,0-2.183.078-1.092.078-1.795.078c-.1,0-.156-.078-.156-.234s.052-.234.156-.234a3.977,3.977,0,0,0,2.555-1.268,10.51,10.51,0,0,0,2.4-3.568l8.229-19.422c0-.077.091-.117.273-.117a.7.7,0,0,1,.508.157l8.735,21.411a15.989,15.989,0,0,0,.878,1.832,1.91,1.91,0,0,0,.839.722,4.056,4.056,0,0,0,1.638.254c.078,0,.117.077.117.234s-.039.234-.117.234Q-873.018,384.559-874.5,384.481Zm-14.585-12.519h5.265l-2.652-6.357Zm93.6,5.366a.336.336,0,0,1-.049-.144c0-.314.529-.434.842-.434h.145c.359,0,.913.145.913.7.745.073,1.827.1,3.175.1,2.813,0,30.848-2.115,33.251-2.115a1.09,1.09,0,0,1,.337.024.705.705,0,0,1,.143.384c0,.867-30.39,1.972-33.9,1.972C-793.374,377.807-795.345,377.687-795.489,377.327Zm157.64-19.386c-.052-.117-.039-.2.039-.254a28.336,28.336,0,0,0,2.574-2.457l1.6-1.6q.194-.194,1.424.137a14.649,14.649,0,0,1,2.223.78q.994.448.565.526a44.114,44.114,0,0,0-8.112,3l-.078.04A.251.251,0,0,1-637.848,357.941Zm-328.848.175a.288.288,0,0,1-.253-.175c-.066-.117-.058-.2.019-.254q.78-.624,2.614-2.457.779-.819,1.6-1.6.157-.155,1.4.176a16.153,16.153,0,0,1,2.243.76q.995.429.526.508a42.383,42.383,0,0,0-8.112,3.042Z" transform="translate(1014.24 -348.58)" fill="#fff" stroke="#fff" stroke-width="1"/>
    </g>
    <g transform="matrix(1, 0, 0, 1, 625.5, 739.15)" filter="url(#_29.10.2023_-_DAEWOO_HOTEL_HANOI)">
      <text id="_29.10.2023_-_DAEWOO_HOTEL_HANOI-2" data-name="29.10.2023 - DAEWOO HOTEL HANOI" transform="translate(252.5 67.33)" fill="#fff" font-size="20" font-family="Lexend-SemiBold, Lexend" font-weight="600" letter-spacing="0.1em"><tspan x="-214" y="0">29.10.2023 - DAEWOO HOTEL HANOI</tspan></text>
    </g>
  </g>
</svg>
